# xmcd
#
# Track frame offsets: 
#        150
#        11420
#        29723
#        49664
#        68815
#        86034
#        104516
#        124964
#        150419
#        169268
#        191888
#        207645
#        225673
#
# Disc length: 3265 seconds
#
# Revision: 0
# Processed by: cddbd v1.5.2PL0 Copyright (c) Steve Scherf et al.
# Submitted via: ExactAudioCopyFreeDBPlugin 1.0
#
DISCID=b70cbf0d
DTITLE=王艺瑾 - stereo 爱的光芒
DYEAR=2008
DGENRE=Acid
TTITLE0=金枝欲孽（咏叹调）
TTITLE1=梧桐雨
TTITLE2=你会不会后悔离开我
TTITLE3=黄玫瑰
TTITLE4=假如爱能重来过
TTITLE5=陷入爱里面
TTITLE6=不是我不小心
TTITLE7=爱的光芒
TTITLE8=相思
TTITLE9=有没有一种爱让人不流泪
TTITLE10=鸳鸯弦
TTITLE11=有缘人
TTITLE12=水中花
EXTD=
EXTT0=
EXTT1=
EXTT2=
EXTT3=
EXTT4=
EXTT5=
EXTT6=
EXTT7=
EXTT8=
EXTT9=
EXTT10=
EXTT11=
EXTT12=
PLAYORDER=
